<svg xmlns="http://www.w3.org/2000/svg" width="240" height="160" viewBox="0 0 240 160" fill="none">
  <rect x="16" y="24" width="208" height="112" rx="20" fill="#FFFFFF"/>
  <rect x="16" y="24" width="208" height="112" rx="20" fill="#6EC1FF" fill-opacity="0.08"/>
  <path d="M56 56h36a8 8 0 0 0 6.4-3.2l4.5-6a8 8 0 0 1 6.4-3.2H140a12 12 0 0 1 12 12v40a16 16 0 0 1-16 16H64a16 16 0 0 1-16-16V60a4 4 0 0 1 4-4Z" fill="#8FD3A3" fill-opacity="0.25"/>
  <circle cx="160" cy="88" r="18" fill="#6EC1FF" fill-opacity="0.35"/>
  <circle cx="94" cy="92" r="6" fill="#6EC1FF" fill-opacity="0.2"/>
  <rect x="76" y="92" width="52" height="8" rx="4" fill="#6B7280" fill-opacity="0.35"/>
</svg>

